Coordinates
version=1
nRows=10
nColumns=40
inDegrees=yes

Units are S.I. units (second, meters, Newtons, ...)
If the header above contains a line with 'inDegrees', this indicates whether rotational values are in degrees (yes) or radians (no).

endheader
time	pelvis_tilt	pelvis_list	pelvis_rotation	pelvis_tx	pelvis_ty	pelvis_tz	hip_flexion_r	hip_adduction_r	hip_rotation_r	knee_angle_r	knee_angle_r_beta	ankle_angle_r	subtalar_angle_r	mtp_angle_r	hip_flexion_l	hip_adduction_l	hip_rotation_l	knee_angle_l	knee_angle_l_beta	ankle_angle_l	subtalar_angle_l	mtp_angle_l	lumbar_extension	lumbar_bending	lumbar_rotation	arm_flex_r	arm_add_r	arm_rot_r	elbow_flex_r	pro_sup_r	wrist_flex_r	wrist_dev_r	arm_flex_l	arm_add_l	arm_rot_l	elbow_flex_l	pro_sup_l	wrist_flex_l	wrist_dev_l
      1.89000000	      1.42708553	    -11.31255260	     86.31262533	      0.20000468	      0.88900986	      0.22465152	     -7.79420739	      7.60108572	      9.13948100	      1.59384013	      0.02781776	     12.15261655	      0.00000000	      0.00000000	     37.15730815	      0.58189505	      6.64765599	      1.27749279	      0.02229646	      0.23469687	      0.00000000	      0.00000000	      6.84099943	     -0.06251596	      5.20062472	      0.00000000	      0.00000000	      0.00000000	      0.00000000	      0.00000000	      0.00000000	      0.00000000	      0.00000000	      0.00000000	      0.00000000	      0.00000000	      0.00000000	      0.00000000	      0.00000000
      1.90000000	      1.24828742	    -11.43849158	     86.21103529	      0.19988073	      0.88836825	      0.21480644	     -8.11508892	      7.35507755	      9.00333268	      1.91732616	      0.03346365	     11.81434532	      0.00000000	      0.00000000	     36.92705419	      0.76570256	      6.14106805	      1.73445495	      0.03027195	     -0.29145715	      0.00000000	      0.00000000	      7.11779037	     -0.23823316	      5.18660685	      0.00000000	      0.00000000	      0.00000000	      0.00000000	      0.00000000	      0.00000000	      0.00000000	      0.00000000	      0.00000000	      0.00000000	      0.00000000	      0.00000000	      0.00000000	      0.00000000
      1.91000000	      1.18951041	    -11.65942419	     86.06280208	      0.19987428	      0.88780117	      0.20491630	     -8.25385007	      7.24197955	      8.95633360	      2.40267417	      0.04193458	     11.56281523	      0.00000000	      0.00000000	     36.71043066	      0.79501819	      6.00419067	      2.12155158	      0.03702806	     -0.41451243	      0.00000000	      0.00000000	      7.53040129	     -0.24592934	      5.25520564	      0.00000000	      0.00000000	      0.00000000	      0.00000000	      0.00000000	      0.00000000	      0.00000000	      0.00000000	      0.00000000	      0.00000000	      0.00000000	      0.00000000	      0.00000000	      0.00000000
      1.92000000	      0.79208875	    -11.75697333	     86.05589538	      0.19946911	      0.88748003	      0.19465157	     -8.51930921	      6.76685883	      8.50303384	      2.84088223	      0.04958275	     10.95033425	      0.00000000	      0.00000000	     36.44007926	      1.26335891	      5.15797618	      2.61008003	      0.04555449	     -1.93304816	      0.00000000	      0.00000000	      7.82167255	     -0.70046831	      5.12416185	      0.00000000	      0.00000000	      0.00000000	      0.00000000	      0.00000000	      0.00000000	      0.00000000	      0.00000000	      0.00000000	      0.00000000	      0.00000000	      0.00000000	      0.00000000	      0.00000000
      1.93000000	      0.49153974	    -11.88712235	     85.98139903	      0.19916925	      0.88733257	      0.18432766	     -8.66431949	      6.39171552	      8.15285690	      3.43497035	      0.05995154	     10.34380069	      0.00000000	      0.00000000	     36.09822458	      1.59518867	      4.61727894	      2.92698285	      0.05108549	     -3.12985957	      0.00000000	      0.00000000	      8.15538583	     -1.00069920	      5.11974166	      0.00000000	      0.00000000	      0.00000000	      0.00000000	      0.00000000	      0.00000000	      0.00000000	      0.00000000	      0.00000000	      0.00000000	      0.00000000	      0.00000000	      0.00000000	      0.00000000
      1.94000000	      0.18310782	    -11.99144223	     85.91639286	      0.19885381	      0.88739546	      0.17383153	     -8.77575910	      6.00103440	      7.69162490	      4.13082353	      0.07209647	      9.64389833	      0.00000000	      0.00000000	     35.69275089	      1.94127393	      4.12153054	      3.15442807	      0.05505516	     -4.50025878	      0.00000000	      0.00000000	      8.49152819	     -1.33308000	      5.12892075	      0.00000000	      0.00000000	      0.00000000	      0.00000000	      0.00000000	      0.00000000	      0.00000000	      0.00000000	      0.00000000	      0.00000000	      0.00000000	      0.00000000	      0.00000000	      0.00000000
      1.95000000	     -0.18187371	    -12.12315414	     85.86000949	      0.19844347	      0.88760648	      0.16324207	     -8.76791061	      5.54689802	      7.18322563	      4.95605366	      0.08649945	      8.83850533	      0.00000000	     -0.00000000	     35.31011750	      2.35732165	      3.62433792	      3.34782570	      0.05843058	     -5.86010719	      0.00000000	      0.00000000	      8.86814356	     -1.71430780	      5.10443447	     -0.00000000	     -0.00000000	      0.00000000	      0.00000000	      0.00000000	     -0.00000000	      0.00000000	     -0.00000000	      0.00000000	     -0.00000000	      0.00000000	      0.00000000	     -0.00000000	      0.00000000
      1.96000000	     -0.52335554	    -12.25073729	     85.83341495	      0.19802418	      0.88799831	      0.15264753	     -8.67974484	      5.13070806	      6.88888326	      5.91671650	      0.10326618	      8.02229874	      0.00000000	      0.00000000	     34.96930706	      2.77261169	      3.23923019	      3.61041784	      0.06301368	     -6.84256004	      0.00000000	      0.00000000	      9.22591551	     -2.08427707	      5.04249817	     -0.00000000	     -0.00000000	     -0.00000000	      0.00000000	      0.00000000	      0.00000000	      0.00000000	     -0.00000000	      0.00000000	     -0.00000000	      0.00000000	      0.00000000	     -0.00000000	     -0.00000000
      1.97000000	     -0.95305297	    -12.34055328	     85.79707658	      0.19746524	      0.88862668	      0.14184363	     -8.51157389	      4.56011287	      5.88170998	      7.02068617	      0.12253409	      6.85087435	      0.00000000	      0.00000000	     34.46453333	      3.27315977	      2.71752633	      3.58550053	      0.06257879	     -8.59402589	      0.00000000	      0.00000000	      9.57203118	     -2.52715882	      5.10088583	      0.00000000	      0.00000000	      0.00000000	      0.00000000	      0.00000000	      0.00000000	      0.00000000	      0.00000000	      0.00000000	      0.00000000	      0.00000000	      0.00000000	      0.00000000	      0.00000000
      1.98000000	     -1.36382182	    -12.42135809	     85.78157638	      0.19689407	      0.88943046	      0.13105657	     -8.24858368	      4.01133052	      5.12730017	      8.29700535	      0.14481006	      5.63602231	     -0.00000000	     -0.00000000	     34.00152729	      3.77419705	      2.32150679	      3.67044670	      0.06406138	     -9.76594681	      0.00000000	     -0.00000000	      9.90430776	     -2.96649235	      5.10852449	     -0.00000000	      0.00000000	      0.00000000	      0.00000000	      0.00000000	      0.00000000	     -0.00000000	     -0.00000000	      0.00000000	     -0.00000000	      0.00000000	      0.00000000	      0.00000000	      0.00000000
